<?xml version="1.0" encoding="UTF-8"?>
<!DOCTYPE svg PUBLIC "-//W3C//DTD SVG 1.1//EN" "http://www.w3.org/Graphics/SVG/1.1/DTD/svg11.dtd">
<svg xmlns="http://www.w3.org/2000/svg" version="1.1" width="512px" height="512px" style="shape-rendering:geometricPrecision; text-rendering:geometricPrecision; image-rendering:optimizeQuality; fill-rule:evenodd; clip-rule:evenodd" xmlns:xlink="http://www.w3.org/1999/xlink">
<g><path style="opacity:0.949" fill="#000000" d="M -0.5,494.5 C -0.5,475.5 -0.5,456.5 -0.5,437.5C 13.092,344.402 64.4253,282.569 153.5,252C 104.616,223.743 81.7822,181.243 85,124.5C 93.1611,71.3216 122.328,35.1549 172.5,16C 225.285,1.40278 270.785,13.5694 309,52.5C 343.022,94.6481 350.022,140.981 330,191.5C 317.186,217.814 298.019,238.148 272.5,252.5C 289,257.497 304.666,264.33 319.5,273C 323.973,280.254 322.64,286.254 315.5,291C 312.5,291.667 309.5,291.667 306.5,291C 238.85,256.629 172.517,258.962 107.5,298C 56.753,333.637 28.253,382.47 22,444.5C 21.9577,461.566 21.2911,478.566 20,495.5C 12.7632,503.483 5.92991,503.149 -0.5,494.5 Z M 199.5,32.5 C 245.375,29.3535 280.541,47.0201 305,85.5C 323.277,121.344 322.944,157.01 304,192.5C 277.035,232.559 239.535,249.059 191.5,242C 144.986,230.148 117.153,200.648 108,153.5C 103.566,107.753 120.4,72.2535 158.5,47C 171.487,39.8204 185.154,34.9871 199.5,32.5 Z"/></g>
<g><path style="opacity:0.947" fill="#000000" d="M 511.5,368.5 C 511.5,378.5 511.5,388.5 511.5,398.5C 501.031,454.137 468.031,487.971 412.5,500C 354.217,505.618 312.051,482.451 286,430.5C 267.939,382.182 275.939,338.849 310,300.5C 348.228,265.722 391.728,257.222 440.5,275C 480.293,293.955 503.96,325.122 511.5,368.5 Z M 381.5,288.5 C 428.953,285.799 462.786,305.799 483,348.5C 496.731,389.405 488.231,424.905 457.5,455C 427.8,479.204 394.8,484.871 358.5,472C 312.624,449.755 293.457,413.255 301,362.5C 309.398,330.773 328.565,308.273 358.5,295C 366.092,292.074 373.759,289.907 381.5,288.5 Z"/></g>
<g><path style="opacity:0.962" fill="#000000" d="M 389.5,319.5 C 395.386,318.343 400.219,320.01 404,324.5C 405.438,340.443 405.938,356.443 405.5,372.5C 420.837,372.333 436.17,372.5 451.5,373C 458.414,376.77 460.247,382.27 457,389.5C 455.457,391.378 453.624,392.878 451.5,394C 436.17,394.5 420.837,394.667 405.5,394.5C 405.667,409.17 405.5,423.837 405,438.5C 402.081,447.37 396.247,449.87 387.5,446C 385.951,444.786 384.785,443.286 384,441.5C 383.5,425.837 383.333,410.17 383.5,394.5C 368.163,394.667 352.83,394.5 337.5,394C 329.846,390.037 328.013,384.204 332,376.5C 333.579,374.959 335.413,373.792 337.5,373C 352.83,372.5 368.163,372.333 383.5,372.5C 383.333,356.83 383.5,341.163 384,325.5C 385.36,322.977 387.193,320.977 389.5,319.5 Z"/></g>
</svg>
