<?xml version="1.0" encoding="UTF-8"?>
<!DOCTYPE svg PUBLIC "-//W3C//DTD SVG 1.1//EN" "http://www.w3.org/Graphics/SVG/1.1/DTD/svg11.dtd">
<svg xmlns="http://www.w3.org/2000/svg" version="1.1" width="640px" height="640px" style="shape-rendering:geometricPrecision; text-rendering:geometricPrecision; image-rendering:optimizeQuality; fill-rule:evenodd; clip-rule:evenodd" xmlns:xlink="http://www.w3.org/1999/xlink">
<g><path style="opacity:1" fill="#fefefe" d="M -0.5,-0.5 C 212.833,-0.5 426.167,-0.5 639.5,-0.5C 639.5,212.833 639.5,426.167 639.5,639.5C 426.167,639.5 212.833,639.5 -0.5,639.5C -0.5,426.167 -0.5,212.833 -0.5,-0.5 Z"/></g>
<g><path style="opacity:1" fill="#020202" d="M 330.5,75.5 C 332.515,76.9238 334.848,77.5905 337.5,77.5C 344.856,80.3503 352.189,83.517 359.5,87C 376.645,86.7997 393.311,89.4664 409.5,95C 421.864,100.692 432.53,108.692 441.5,119C 452.71,122.94 463.377,127.94 473.5,134C 477.947,137.257 480.947,141.424 482.5,146.5C 465.118,151.929 447.451,156.262 429.5,159.5C 425.64,159.808 421.974,160.475 418.5,161.5C 352.348,169.074 286.348,167.907 220.5,158C 205.278,155.191 190.278,151.691 175.5,147.5C 173.485,146.076 171.152,145.41 168.5,145.5C 166.314,145.489 165.481,144.489 166,142.5C 176.513,126.475 191.013,116.142 209.5,111.5C 212.152,111.59 214.485,110.924 216.5,109.5C 220.416,108.355 224.416,107.522 228.5,107C 237.167,101 245.833,95 254.5,89C 278.277,75.891 303.61,71.391 330.5,75.5 Z"/></g>
<g><path style="opacity:1" fill="#ababab" d="M 330.5,75.5 C 333.152,75.4095 335.485,76.0762 337.5,77.5C 334.848,77.5905 332.515,76.9238 330.5,75.5 Z"/></g>
<g><path style="opacity:1" fill="#4a4a4a" d="M 216.5,109.5 C 214.485,110.924 212.152,111.59 209.5,111.5C 211.515,110.076 213.848,109.41 216.5,109.5 Z"/></g>
<g><path style="opacity:1" fill="#eeeeee" d="M 242.5,113.5 C 248.263,113.783 249.93,116.616 247.5,122C 240.909,124.244 238.409,122.077 240,115.5C 240.995,114.934 241.828,114.267 242.5,113.5 Z"/></g>
<g><path style="opacity:1" fill="#e8e8e8" d="M 227.5,128.5 C 234.486,128.331 236.153,131.164 232.5,137C 230.299,137.825 228.466,137.325 227,135.5C 226.297,133.071 226.463,130.738 227.5,128.5 Z"/></g>
<g><path style="opacity:1" fill="#e9e9e9" d="M 201.5,130.5 C 207.83,129.666 210.663,132.333 210,138.5C 204.585,142.055 201.085,140.721 199.5,134.5C 199.752,132.927 200.418,131.594 201.5,130.5 Z"/></g>
<g><path style="opacity:1" fill="#e9e9e9" d="M 216.5,144.5 C 221.993,143.178 224.493,145.178 224,150.5C 222.192,152.396 220.025,152.896 217.5,152C 215.285,149.758 214.952,147.258 216.5,144.5 Z"/></g>
<g><path style="opacity:1" fill="#eaeaea" d="M 246.5,144.5 C 251.993,143.178 254.493,145.178 254,150.5C 252.192,152.396 250.025,152.896 247.5,152C 245.285,149.758 244.952,147.258 246.5,144.5 Z"/></g>
<g><path style="opacity:1" fill="#494949" d="M 168.5,145.5 C 171.152,145.41 173.485,146.076 175.5,147.5C 172.848,147.59 170.515,146.924 168.5,145.5 Z"/></g>
<g><path style="opacity:1" fill="#010101" d="M 231.5,167.5 C 234.974,168.525 238.64,169.192 242.5,169.5C 262.101,171.83 281.768,173.497 301.5,174.5C 311.828,175.167 322.328,175.5 333,175.5C 349.027,175.665 364.861,174.998 380.5,173.5C 393.475,172.021 406.475,170.688 419.5,169.5C 423.489,169.884 427.155,169.217 430.5,167.5C 450.474,164.507 469.807,159.341 488.5,152C 497.248,152.044 503.415,156.21 507,164.5C 507.667,170.167 507.667,175.833 507,181.5C 503.629,187.896 501.129,194.562 499.5,201.5C 500.856,208.223 503.356,214.556 507,220.5C 507.667,224.5 507.667,228.5 507,232.5C 496.419,236.582 485.586,240.082 474.5,243C 458.109,246.597 441.775,249.763 425.5,252.5C 420.269,252.444 415.269,253.111 410.5,254.5C 374.611,258.152 338.611,259.318 302.5,258C 273.395,256.119 244.395,253.286 215.5,249.5C 215.082,248.778 214.416,248.278 213.5,248C 210.854,247.503 208.187,247.336 205.5,247.5C 183.133,244.827 161.133,240.327 139.5,234C 133.006,225.363 132.839,216.529 139,207.5C 141.667,204.833 144.333,202.167 147,199.5C 149.603,194.045 148.603,189.379 144,185.5C 138.097,175.407 138.097,165.407 144,155.5C 146.619,152.195 149.953,150.195 154,149.5C 179.26,157.862 205.094,163.862 231.5,167.5 Z"/></g>
<g><path style="opacity:1" fill="#a4a4a4" d="M 429.5,159.5 C 426.155,161.217 422.489,161.884 418.5,161.5C 421.974,160.475 425.64,159.808 429.5,159.5 Z"/></g>
<g><path style="opacity:1" fill="#9c9c9c" d="M 231.5,167.5 C 235.489,167.116 239.155,167.783 242.5,169.5C 238.64,169.192 234.974,168.525 231.5,167.5 Z"/></g>
<g><path style="opacity:1" fill="#464646" d="M 430.5,167.5 C 427.155,169.217 423.489,169.884 419.5,169.5C 422.974,168.475 426.64,167.808 430.5,167.5 Z"/></g>
<g><path style="opacity:1" fill="#595959" d="M 380.5,173.5 C 364.861,174.998 349.027,175.665 333,175.5C 322.328,175.5 311.828,175.167 301.5,174.5C 327.842,174.65 354.175,174.317 380.5,173.5 Z"/></g>
<g><path style="opacity:1" fill="#020202" d="M 217.5,257.5 C 222.269,258.889 227.269,259.556 232.5,259.5C 233.167,259.5 233.833,259.5 234.5,259.5C 239.269,260.889 244.269,261.556 249.5,261.5C 278.016,264.82 306.683,266.153 335.5,265.5C 367.708,266.375 399.708,264.375 431.5,259.5C 435.489,259.884 439.155,259.217 442.5,257.5C 461.442,254.431 480.109,250.098 498.5,244.5C 502.407,259.553 504.741,274.886 505.5,290.5C 505.444,295.731 506.111,300.731 507.5,305.5C 512.617,359.704 514.783,414.037 514,468.5C 519.813,473.147 523.313,479.147 524.5,486.5C 524.257,490.151 522.59,492.984 519.5,495C 508.178,494.914 496.845,494.747 485.5,494.5C 480.586,494.362 475.919,495.028 471.5,496.5C 464.1,497.063 456.766,498.063 449.5,499.5C 445.64,499.808 441.974,500.475 438.5,501.5C 434.426,501.782 430.426,502.448 426.5,503.5C 421.586,503.362 416.919,504.028 412.5,505.5C 359.258,511.188 305.924,512.021 252.5,508C 222.397,504.306 192.397,499.973 162.5,495C 150.154,494.616 137.821,494.616 125.5,495C 119.372,489.403 118.872,483.236 124,476.5C 126.295,473.203 128.962,470.203 132,467.5C 131.443,439.18 131.443,410.847 132,382.5C 133.637,336.183 138.137,290.183 145.5,244.5C 169.284,249.909 193.284,254.242 217.5,257.5 Z"/></g>
<g><path style="opacity:1" fill="#434343" d="M 205.5,247.5 C 208.187,247.336 210.854,247.503 213.5,248C 214.416,248.278 215.082,248.778 215.5,249.5C 211.96,249.247 208.627,248.581 205.5,247.5 Z"/></g>
<g><path style="opacity:1" fill="#b0b0b0" d="M 425.5,252.5 C 420.731,253.889 415.731,254.556 410.5,254.5C 415.269,253.111 420.269,252.444 425.5,252.5 Z"/></g>
<g><path style="opacity:1" fill="#8b8b8b" d="M 217.5,257.5 C 222.731,257.444 227.731,258.111 232.5,259.5C 227.269,259.556 222.269,258.889 217.5,257.5 Z"/></g>
<g><path style="opacity:1" fill="#515151" d="M 442.5,257.5 C 439.155,259.217 435.489,259.884 431.5,259.5C 434.974,258.475 438.64,257.808 442.5,257.5 Z"/></g>
<g><path style="opacity:1" fill="#999999" d="M 234.5,259.5 C 239.731,259.444 244.731,260.111 249.5,261.5C 244.269,261.556 239.269,260.889 234.5,259.5 Z"/></g>
<g><path style="opacity:1" fill="#fcfcfc" d="M 407.5,353.5 C 407.41,356.152 408.076,358.485 409.5,360.5C 416.377,392.256 408.877,420.256 387,444.5C 382.989,447.847 378.989,451.18 375,454.5C 362.013,447.656 349.18,440.656 336.5,433.5C 336.389,432.883 336.056,432.383 335.5,432C 332.854,431.503 330.187,431.336 327.5,431.5C 327.5,423.5 327.5,415.5 327.5,407.5C 332.93,397.547 341.263,394.38 352.5,398C 367.067,392.634 375.9,382.468 379,367.5C 378.25,366.874 377.416,366.374 376.5,366C 369.842,365.5 363.175,365.334 356.5,365.5C 353.848,365.41 351.515,366.076 349.5,367.5C 339.139,371.704 332.972,379.37 331,390.5C 329.426,391.984 328.093,393.651 327,395.5C 326.333,383.167 326.333,370.833 327,358.5C 338.83,346.528 340.497,333.195 332,318.5C 330.248,315.328 328.248,312.328 326,309.5C 323.667,306.833 321.333,306.833 319,309.5C 312.276,317.448 308.443,326.615 307.5,337C 307.901,345.968 311.401,353.468 318,359.5C 318.667,371.5 318.667,383.5 318,395.5C 316.333,393.833 314.667,392.167 313,390.5C 311.016,376.847 303.183,368.68 289.5,366C 282.167,365.333 274.833,365.333 267.5,366C 265.675,367.466 265.175,369.299 266,371.5C 270.715,383.547 278.881,392.381 290.5,398C 296.862,398.424 303.195,398.424 309.5,398C 312.754,400.747 315.42,403.914 317.5,407.5C 317.5,416.833 317.5,426.167 317.5,435.5C 313.958,435.187 310.625,435.521 307.5,436.5C 305.407,437.045 303.407,437.878 301.5,439C 293.788,445.714 285.788,452.047 277.5,458C 276.5,458.667 275.5,458.667 274.5,458C 243.863,436.552 230.03,407.052 233,369.5C 241.523,328.644 266.023,303.144 306.5,293C 345.698,288.713 376.531,302.547 399,334.5C 402.51,340.531 405.344,346.864 407.5,353.5 Z"/></g>
<g><path style="opacity:1" fill="#616161" d="M 505.5,290.5 C 506.889,295.269 507.556,300.269 507.5,305.5C 506.111,300.731 505.444,295.731 505.5,290.5 Z"/></g>
<g><path style="opacity:1" fill="#a2a2a2" d="M 407.5,353.5 C 408.924,355.515 409.59,357.848 409.5,360.5C 408.076,358.485 407.41,356.152 407.5,353.5 Z"/></g>
<g><path style="opacity:1" fill="#4b4b4b" d="M 356.5,365.5 C 354.485,366.924 352.152,367.59 349.5,367.5C 351.515,366.076 353.848,365.41 356.5,365.5 Z"/></g>
<g><path style="opacity:1" fill="#d5d5d5" d="M 327.5,407.5 C 327.5,415.5 327.5,423.5 327.5,431.5C 330.187,431.336 332.854,431.503 335.5,432C 336.056,432.383 336.389,432.883 336.5,433.5C 333.236,432.676 329.902,432.342 326.5,432.5C 326.174,423.983 326.507,415.65 327.5,407.5 Z"/></g>
<g><path style="opacity:1" fill="#c8c8c8" d="M 317.5,407.5 C 318.494,416.986 318.827,426.652 318.5,436.5C 314.833,436.5 311.167,436.5 307.5,436.5C 310.625,435.521 313.958,435.187 317.5,435.5C 317.5,426.167 317.5,416.833 317.5,407.5 Z"/></g>
<g><path style="opacity:1" fill="#a1a1a1" d="M 485.5,494.5 C 481.081,495.972 476.414,496.638 471.5,496.5C 475.919,495.028 480.586,494.362 485.5,494.5 Z"/></g>
<g><path style="opacity:1" fill="#ababab" d="M 449.5,499.5 C 446.155,501.217 442.489,501.884 438.5,501.5C 441.974,500.475 445.64,499.808 449.5,499.5 Z"/></g>
<g><path style="opacity:1" fill="#b8b8b8" d="M 426.5,503.5 C 422.081,504.972 417.414,505.638 412.5,505.5C 416.919,504.028 421.586,503.362 426.5,503.5 Z"/></g>
</svg>
